M48
; DRILL file {KiCad (6.0.9)} date Fri Dec  2 14:08:34 2022
; FORMAT={-:-/ absolute / inch / decimal}
; #@! TF.CreationDate,2022-12-02T14:08:34-06:00
; #@! TF.GenerationSoftware,Kicad,Pcbnew,(6.0.9)
; #@! TF.FileFunction,Plated,1,2,PTH
FMAT,2
INCH
; #@! TA.AperFunction,Plated,PTH,ViaDrill
T1C0.0157
; #@! TA.AperFunction,Plated,PTH,ComponentDrill
T2C0.0394
%
G90
G05
T1
X5.308Y-2.636
X5.308Y-2.866
X5.358Y-4.896
X5.368Y-3.286
X5.408Y-2.636
X5.408Y-5.096
X5.458Y-4.896
X5.508Y-5.096
X5.558Y-4.896
X5.608Y-5.096
X5.658Y-4.896
X5.708Y-5.096
X5.758Y-4.896
X5.808Y-5.096
X5.858Y-4.896
X5.908Y-5.096
X5.958Y-4.896
X5.971Y-2.658
X6.008Y-5.096
X6.048Y-2.796
X6.048Y-3.431
X6.058Y-4.896
X6.088Y-2.796
X6.098Y-3.431
X6.108Y-5.096
X6.128Y-2.796
X6.148Y-3.431
X6.158Y-4.896
X6.208Y-5.096
X6.258Y-4.896
X6.308Y-5.096
X6.358Y-4.896
X6.408Y-5.096
X6.458Y-4.896
X6.508Y-5.096
X6.558Y-4.896
X6.608Y-5.096
X6.658Y-3.836
X6.658Y-4.896
X6.708Y-5.096
X6.7596Y-4.8981
X6.808Y-5.096
X6.8597Y-4.8971
X6.908Y-5.096
X6.958Y-4.896
X7.0048Y-3.4292
X7.008Y-5.096
X7.058Y-4.896
X7.108Y-5.096
X7.158Y-4.896
X7.208Y-5.096
X7.258Y-4.896
X7.308Y-5.096
X7.358Y-4.896
X7.408Y-5.096
X7.458Y-4.896
X7.508Y-5.096
T2
X5.3048Y-2.2406
X5.3048Y-2.3406
X5.4048Y-2.2406
X5.4048Y-2.3406
X5.5048Y-2.2406
X5.5048Y-2.3406
X5.6048Y-2.2406
X5.6048Y-2.3406
X5.7048Y-2.2406
X5.7048Y-2.3406
X5.8048Y-2.2406
X5.8048Y-2.3406
X5.9048Y-2.2406
X5.9048Y-2.3406
X6.0048Y-2.2406
X6.0048Y-2.3406
X6.1048Y-2.2406
X6.1048Y-2.3406
X6.2048Y-2.2406
X6.2048Y-2.3406
X6.3048Y-2.2406
X6.3048Y-2.3406
X6.4048Y-2.2406
X6.4048Y-2.3406
X6.5048Y-2.2406
X6.5048Y-2.3406
X6.6048Y-2.2406
X6.6048Y-2.3406
X6.7048Y-2.2406
X6.7048Y-2.3406
X6.8048Y-2.2406
X6.8048Y-2.3406
X6.9048Y-2.2406
X6.9048Y-2.3406
X7.0048Y-2.2406
X7.0048Y-2.3406
X7.1048Y-2.2406
X7.1048Y-2.3406
X7.2048Y-2.2406
X7.2048Y-2.3406
X7.3048Y-2.2406
X7.3048Y-2.3406
X7.4048Y-2.2406
X7.4048Y-2.3406
X7.5048Y-2.2406
X7.5048Y-2.3406
T0
M30
