%TF.GenerationSoftware,KiCad,Pcbnew,(6.0.9)*%
%TF.CreationDate,2022-12-02T14:08:30-06:00*%
%TF.ProjectId,Game Gear Breakout,47616d65-2047-4656-9172-20427265616b,rev?*%
%TF.SameCoordinates,Original*%
%TF.FileFunction,Copper,L2,Bot*%
%TF.FilePolarity,Positive*%
%FSLAX46Y46*%
G04 Gerber Fmt 4.6, Leading zero omitted, Abs format (unit mm)*
G04 Created by KiCad (PCBNEW (6.0.9)) date 2022-12-02 14:08:30*
%MOMM*%
%LPD*%
G01*
G04 APERTURE LIST*
G04 Aperture macros list*
%AMRoundRect*
0 Rectangle with rounded corners*
0 $1 Rounding radius*
0 $2 $3 $4 $5 $6 $7 $8 $9 X,Y pos of 4 corners*
0 Add a 4 corners polygon primitive as box body*
4,1,4,$2,$3,$4,$5,$6,$7,$8,$9,$2,$3,0*
0 Add four circle primitives for the rounded corners*
1,1,$1+$1,$2,$3*
1,1,$1+$1,$4,$5*
1,1,$1+$1,$6,$7*
1,1,$1+$1,$8,$9*
0 Add four rect primitives between the rounded corners*
20,1,$1+$1,$2,$3,$4,$5,0*
20,1,$1+$1,$4,$5,$6,$7,0*
20,1,$1+$1,$6,$7,$8,$9,0*
20,1,$1+$1,$8,$9,$2,$3,0*%
G04 Aperture macros list end*
%TA.AperFunction,ComponentPad*%
%ADD10R,1.700000X1.700000*%
%TD*%
%TA.AperFunction,ComponentPad*%
%ADD11O,1.700000X1.700000*%
%TD*%
%TA.AperFunction,ComponentPad*%
%ADD12RoundRect,0.425000X0.425000X-0.425000X0.425000X0.425000X-0.425000X0.425000X-0.425000X-0.425000X0*%
%TD*%
%TA.AperFunction,SMDPad,CuDef*%
%ADD13RoundRect,0.250000X0.450000X-0.350000X0.450000X0.350000X-0.450000X0.350000X-0.450000X-0.350000X0*%
%TD*%
%TA.AperFunction,ViaPad*%
%ADD14C,0.800000*%
%TD*%
%TA.AperFunction,Conductor*%
%ADD15C,0.304800*%
%TD*%
%TA.AperFunction,Conductor*%
%ADD16C,0.203200*%
%TD*%
G04 APERTURE END LIST*
D10*
%TO.P,J2,1,Pin_1*%
%TO.N,/+34V*%
X134742699Y-59451899D03*
D11*
%TO.P,J2,2,Pin_2*%
%TO.N,+5V*%
X134742699Y-56911899D03*
%TO.P,J2,3,Pin_3*%
%TO.N,/~{WR}*%
X137282699Y-59451899D03*
%TO.P,J2,4,Pin_4*%
%TO.N,/A12*%
X137282699Y-56911899D03*
%TO.P,J2,5,Pin_5*%
%TO.N,/A7*%
X139822699Y-59451899D03*
%TO.P,J2,6,Pin_6*%
%TO.N,/A6*%
X139822699Y-56911899D03*
%TO.P,J2,7,Pin_7*%
%TO.N,/A5*%
X142362699Y-59451899D03*
%TO.P,J2,8,Pin_8*%
%TO.N,/A4*%
X142362699Y-56911899D03*
%TO.P,J2,9,Pin_9*%
%TO.N,/A3*%
X144902699Y-59451899D03*
%TO.P,J2,10,Pin_10*%
%TO.N,/A2*%
X144902699Y-56911899D03*
%TO.P,J2,11,Pin_11*%
%TO.N,/A1*%
X147442699Y-59451899D03*
%TO.P,J2,12,Pin_12*%
%TO.N,/A0*%
X147442699Y-56911899D03*
%TO.P,J2,13,Pin_13*%
%TO.N,/D0*%
X149982699Y-59451899D03*
%TO.P,J2,14,Pin_14*%
%TO.N,/D1*%
X149982699Y-56911899D03*
%TO.P,J2,15,Pin_15*%
%TO.N,/D2*%
X152522699Y-59451899D03*
D12*
%TO.P,J2,16,Pin_16*%
%TO.N,GND*%
X152522699Y-56911899D03*
%TO.P,J2,17,Pin_17*%
X155062699Y-59451899D03*
%TO.P,J2,18,Pin_18*%
X155062699Y-56911899D03*
D11*
%TO.P,J2,19,Pin_19*%
%TO.N,/D3*%
X157602699Y-59451899D03*
%TO.P,J2,20,Pin_20*%
%TO.N,/D4*%
X157602699Y-56911899D03*
%TO.P,J2,21,Pin_21*%
%TO.N,/D5*%
X160142699Y-59451899D03*
%TO.P,J2,22,Pin_22*%
%TO.N,/D6*%
X160142699Y-56911899D03*
%TO.P,J2,23,Pin_23*%
%TO.N,/D7*%
X162682699Y-59451899D03*
%TO.P,J2,24,Pin_24*%
%TO.N,/~{CE}*%
X162682699Y-56911899D03*
%TO.P,J2,25,Pin_25*%
%TO.N,/A10*%
X165222699Y-59451899D03*
%TO.P,J2,26,Pin_26*%
%TO.N,/~{RD}*%
X165222699Y-56911899D03*
%TO.P,J2,27,Pin_27*%
%TO.N,/~{M0-7}*%
X167762699Y-59451899D03*
%TO.P,J2,28,Pin_28*%
%TO.N,/A15*%
X167762699Y-56911899D03*
%TO.P,J2,29,Pin_29*%
%TO.N,/A11*%
X170302699Y-59451899D03*
%TO.P,J2,30,Pin_30*%
%TO.N,/A9*%
X170302699Y-56911899D03*
%TO.P,J2,31,Pin_31*%
%TO.N,/A8*%
X172842699Y-59451899D03*
%TO.P,J2,32,Pin_32*%
%TO.N,/A13*%
X172842699Y-56911899D03*
%TO.P,J2,33,Pin_33*%
%TO.N,/A14*%
X175382699Y-59451899D03*
%TO.P,J2,34,Pin_34*%
%TO.N,/~{M8-B}*%
X175382699Y-56911899D03*
%TO.P,J2,35,Pin_35*%
%TO.N,+5V*%
X177922699Y-59451899D03*
%TO.P,J2,36,Pin_36*%
%TO.N,/~{M1}*%
X177922699Y-56911899D03*
%TO.P,J2,37,Pin_37*%
%TO.N,/~{IOReg}*%
X180462699Y-59451899D03*
%TO.P,J2,38,Pin_38*%
%TO.N,/~{Refresh}*%
X180462699Y-56911899D03*
%TO.P,J2,39,Pin_39*%
%TO.N,/~{RESET}*%
X183002699Y-59451899D03*
%TO.P,J2,40,Pin_40*%
%TO.N,/Clock*%
X183002699Y-56911899D03*
%TO.P,J2,41,Pin_41*%
%TO.N,/Pin 41*%
X185542699Y-59451899D03*
%TO.P,J2,42,Pin_42*%
%TO.N,/~{GG}*%
X185542699Y-56911899D03*
%TO.P,J2,43,Pin_43*%
%TO.N,/~{TV}*%
X188082699Y-59451899D03*
%TO.P,J2,44,Pin_44*%
%TO.N,/TV_R*%
X188082699Y-56911899D03*
%TO.P,J2,45,Pin_45*%
%TO.N,/TV_L*%
X190622699Y-59451899D03*
D12*
%TO.P,J2,46,Pin_46*%
%TO.N,GND*%
X190622699Y-56911899D03*
%TD*%
D13*
%TO.P,R2,1*%
%TO.N,/+34V*%
X134823699Y-70517399D03*
%TO.P,R2,2*%
%TO.N,Net-(D2-Pad2)*%
X134823699Y-68517399D03*
%TD*%
%TO.P,R1,1*%
%TO.N,+5V*%
X137363699Y-70517399D03*
%TO.P,R1,2*%
%TO.N,Net-(D1-Pad2)*%
X137363699Y-68517399D03*
%TD*%
D14*
%TO.N,+5V*%
X136093699Y-124358899D03*
X136347699Y-83464899D03*
X177922699Y-87101899D03*
X178003699Y-129438899D03*
%TO.N,GND*%
X156413699Y-124358899D03*
X156159699Y-87147899D03*
X151663400Y-67513200D03*
X155143699Y-129438899D03*
X153619699Y-71018899D03*
X153873699Y-124358899D03*
X154889699Y-87147899D03*
X154635699Y-71018899D03*
X155651699Y-71018899D03*
X153619699Y-87147899D03*
%TO.N,Net-(D1-Pad2)*%
X137363699Y-66954899D03*
%TO.N,Net-(D2-Pad2)*%
X134823699Y-66954899D03*
%TO.N,/+34V*%
X134823699Y-72796899D03*
%TO.N,/~{WR}*%
X137363699Y-129438899D03*
%TO.N,/A12*%
X138633699Y-124358899D03*
%TO.N,/A7*%
X139903699Y-129438899D03*
%TO.N,/A6*%
X141173699Y-124358899D03*
%TO.N,/A5*%
X142443699Y-129438899D03*
%TO.N,/A4*%
X143713699Y-124358899D03*
%TO.N,/A3*%
X144983699Y-129438899D03*
%TO.N,/A2*%
X146253699Y-124358899D03*
%TO.N,/A1*%
X147523699Y-129438899D03*
%TO.N,/A0*%
X148793699Y-124358899D03*
%TO.N,/D0*%
X150063699Y-129438899D03*
%TO.N,/D1*%
X151333699Y-124358899D03*
%TO.N,/D2*%
X152603699Y-129438899D03*
%TO.N,/D3*%
X157683699Y-129438899D03*
%TO.N,/D4*%
X158953699Y-124358899D03*
%TO.N,/D5*%
X160223699Y-129438899D03*
%TO.N,/D6*%
X161493699Y-124358899D03*
%TO.N,/D7*%
X162763699Y-129438899D03*
%TO.N,/~{CE}*%
X164033699Y-124358899D03*
%TO.N,/A10*%
X165303699Y-129438899D03*
%TO.N,/~{RD}*%
X166573699Y-124358899D03*
%TO.N,/~{M0-7}*%
X169113699Y-97434899D03*
X167843699Y-129438899D03*
%TO.N,/A15*%
X169113699Y-124358899D03*
%TO.N,/A11*%
X170383699Y-129438899D03*
%TO.N,/A9*%
X171694601Y-124411972D03*
%TO.N,/A8*%
X172923699Y-129438899D03*
%TO.N,/A13*%
X174237553Y-124386714D03*
%TO.N,/A14*%
X175463699Y-129438899D03*
%TO.N,/~{M8-B}*%
X176733699Y-124358899D03*
%TO.N,/~{M1}*%
X179273699Y-124358899D03*
%TO.N,/~{IOReg}*%
X180543699Y-129438899D03*
%TO.N,/~{Refresh}*%
X181813699Y-124358899D03*
%TO.N,/~{RESET}*%
X183083699Y-129438899D03*
%TO.N,/Clock*%
X184353699Y-124358899D03*
%TO.N,/~{GG}*%
X186893699Y-124358899D03*
%TO.N,/~{TV}*%
X188163699Y-129438899D03*
%TO.N,/TV_R*%
X189433699Y-124358899D03*
%TO.N,/TV_L*%
X190703699Y-129438899D03*
%TO.N,/Pin 41*%
X185623699Y-129438899D03*
%TD*%
D15*
%TO.N,+5V*%
X134742699Y-56911899D02*
X136077099Y-58246299D01*
X136077099Y-69230799D02*
X137363699Y-70517399D01*
X134315699Y-108864899D02*
X134315699Y-83464899D01*
X134315699Y-83464899D02*
X134315699Y-75844899D01*
X136093699Y-124358899D02*
X136093699Y-110642899D01*
X137363699Y-72796899D02*
X134315699Y-75844899D01*
X177922699Y-87101899D02*
X177922699Y-59451899D01*
X136347699Y-83464899D02*
X134315699Y-83464899D01*
X178003699Y-129438899D02*
X177922699Y-129357899D01*
X136077099Y-58246299D02*
X136077099Y-69230799D01*
X177922699Y-129357899D02*
X177922699Y-87101899D01*
X137363699Y-70517399D02*
X137363699Y-72796899D01*
X136093699Y-110642899D02*
X134315699Y-108864899D01*
D16*
%TO.N,Net-(D1-Pad2)*%
X137363699Y-68517399D02*
X137363699Y-66954899D01*
%TO.N,Net-(D2-Pad2)*%
X134823699Y-66954899D02*
X134823699Y-68517399D01*
D15*
%TO.N,/+34V*%
X133756400Y-62738000D02*
X133756400Y-65494800D01*
X134742699Y-59451899D02*
X134742699Y-61751701D01*
X134823699Y-72796899D02*
X134823699Y-70517399D01*
X134742699Y-61751701D02*
X133756400Y-62738000D01*
X133768099Y-69709299D02*
X133768099Y-65506499D01*
X134576199Y-70517399D02*
X133768099Y-69709299D01*
X133756400Y-65494800D02*
X133768099Y-65506499D01*
D16*
%TO.N,/~{WR}*%
X138887699Y-66954899D02*
X137282699Y-65349899D01*
X137363699Y-129438899D02*
X137915066Y-128887532D01*
X137282699Y-65349899D02*
X137282699Y-59451899D01*
X137915066Y-128887532D02*
X137915066Y-76563532D01*
X138887699Y-75590899D02*
X138887699Y-66954899D01*
X137915066Y-76563532D02*
X138887699Y-75590899D01*
%TO.N,/A12*%
X138633699Y-76860899D02*
X138633699Y-124358899D01*
X138633699Y-65380711D02*
X139395699Y-66142711D01*
X139395699Y-76098899D02*
X138633699Y-76860899D01*
X137282699Y-56911899D02*
X138633699Y-58262899D01*
X139395699Y-66142711D02*
X139395699Y-76098899D01*
X138633699Y-58262899D02*
X138633699Y-65380711D01*
%TO.N,/A7*%
X139903699Y-129438899D02*
X139903699Y-59532899D01*
%TO.N,/A6*%
X141173699Y-124358899D02*
X141173699Y-58262899D01*
X139822699Y-56911899D02*
X141173699Y-58262899D01*
%TO.N,/A5*%
X142362699Y-129357899D02*
X142443699Y-129438899D01*
X142362699Y-59451899D02*
X142362699Y-129357899D01*
%TO.N,/A4*%
X143713699Y-124358899D02*
X143713699Y-58262899D01*
X143713699Y-58262899D02*
X142362699Y-56911899D01*
%TO.N,/A3*%
X144983699Y-129438899D02*
X144902699Y-129357899D01*
X144902699Y-129357899D02*
X144902699Y-59451899D01*
%TO.N,/A2*%
X146253699Y-58262899D02*
X144902699Y-56911899D01*
X146253699Y-124358899D02*
X146253699Y-58262899D01*
%TO.N,/A1*%
X147523699Y-129438899D02*
X147442699Y-129357899D01*
X147442699Y-129357899D02*
X147442699Y-59451899D01*
%TO.N,/A0*%
X148793699Y-124358899D02*
X148793699Y-58262899D01*
X148793699Y-58262899D02*
X147442699Y-56911899D01*
%TO.N,/D0*%
X150063699Y-129438899D02*
X149982699Y-129357899D01*
X149982699Y-129357899D02*
X149982699Y-59451899D01*
%TO.N,/D1*%
X151333699Y-124358899D02*
X151333699Y-69469499D01*
X151333699Y-69469499D02*
X150672800Y-68808600D01*
X151333699Y-65506101D02*
X151333699Y-58262899D01*
X150672800Y-68808600D02*
X150672800Y-66167000D01*
X150672800Y-66167000D02*
X151333699Y-65506101D01*
X151333699Y-58262899D02*
X149982699Y-56911899D01*
%TO.N,/D2*%
X152522699Y-129357899D02*
X152522699Y-59451899D01*
X152603699Y-129438899D02*
X152522699Y-129357899D01*
%TO.N,/D3*%
X157683699Y-129438899D02*
X157602699Y-129357899D01*
X157602699Y-129357899D02*
X157602699Y-59451899D01*
%TO.N,/D4*%
X158953699Y-124358899D02*
X158953699Y-58262899D01*
X158953699Y-58262899D02*
X157602699Y-56911899D01*
%TO.N,/D5*%
X160223699Y-129438899D02*
X160142699Y-129357899D01*
X160142699Y-129357899D02*
X160142699Y-59451899D01*
%TO.N,/D6*%
X161246699Y-124111899D02*
X161246699Y-58015899D01*
X161493699Y-124358899D02*
X161246699Y-124111899D01*
X161246699Y-58015899D02*
X160142699Y-56911899D01*
%TO.N,/D7*%
X162763699Y-129438899D02*
X162682699Y-129357899D01*
X162682699Y-129357899D02*
X162682699Y-59451899D01*
%TO.N,/~{CE}*%
X164033699Y-58262899D02*
X162682699Y-56911899D01*
X164033699Y-124358899D02*
X164033699Y-58262899D01*
%TO.N,/A10*%
X165303699Y-129438899D02*
X165222699Y-129357899D01*
X165222699Y-129357899D02*
X165222699Y-59451899D01*
%TO.N,/~{RD}*%
X166573699Y-124358899D02*
X166573699Y-58262899D01*
X166573699Y-58262899D02*
X165222699Y-56911899D01*
%TO.N,/~{M0-7}*%
X168940699Y-97261899D02*
X167762699Y-97261899D01*
X167762699Y-97261899D02*
X167762699Y-59451899D01*
X167762699Y-129357899D02*
X167762699Y-97515899D01*
X169113699Y-97434899D02*
X168940699Y-97261899D01*
X167762699Y-97515899D02*
X167762699Y-97261899D01*
X167843699Y-129438899D02*
X167762699Y-129357899D01*
%TO.N,/A15*%
X169113699Y-124358899D02*
X169113699Y-100736899D01*
X169113699Y-95402899D02*
X169113699Y-58262899D01*
X169113699Y-58262899D02*
X167762699Y-56911899D01*
X169875699Y-96164899D02*
X169113699Y-95402899D01*
X169875699Y-99974899D02*
X169875699Y-96164899D01*
X169113699Y-100736899D02*
X169875699Y-99974899D01*
%TO.N,/A11*%
X170302699Y-129357899D02*
X170302699Y-101163899D01*
X170302699Y-101163899D02*
X170891699Y-100574899D01*
X170891699Y-95910899D02*
X170302699Y-95321899D01*
X170891699Y-100574899D02*
X170891699Y-95910899D01*
X170302699Y-95321899D02*
X170302699Y-59451899D01*
X170383699Y-129438899D02*
X170302699Y-129357899D01*
%TO.N,/A9*%
X171694601Y-58303801D02*
X170302699Y-56911899D01*
X171694601Y-124411972D02*
X171694601Y-58303801D01*
%TO.N,/A8*%
X172923699Y-129438899D02*
X172842699Y-129357899D01*
X172842699Y-129357899D02*
X172842699Y-59451899D01*
%TO.N,/A13*%
X174237553Y-58306753D02*
X172842699Y-56911899D01*
X174237553Y-124386714D02*
X174237553Y-58306753D01*
%TO.N,/A14*%
X175382699Y-129357899D02*
X175382699Y-59451899D01*
X175463699Y-129438899D02*
X175382699Y-129357899D01*
%TO.N,/~{M8-B}*%
X176733699Y-58262899D02*
X175382699Y-56911899D01*
X176733699Y-124358899D02*
X176733699Y-58262899D01*
%TO.N,/~{M1}*%
X179273699Y-58262899D02*
X177922699Y-56911899D01*
X179273699Y-124358899D02*
X179273699Y-58262899D01*
%TO.N,/~{IOReg}*%
X180543699Y-129438899D02*
X180462699Y-129357899D01*
X180462699Y-129357899D02*
X180462699Y-59451899D01*
%TO.N,/~{Refresh}*%
X181813699Y-58262899D02*
X180462699Y-56911899D01*
X181813699Y-124358899D02*
X181813699Y-58262899D01*
%TO.N,/~{RESET}*%
X183083699Y-129438899D02*
X183002699Y-129357899D01*
X183002699Y-129357899D02*
X183002699Y-59451899D01*
%TO.N,/Clock*%
X184353699Y-58262899D02*
X183002699Y-56911899D01*
X184353699Y-124358899D02*
X184353699Y-58262899D01*
%TO.N,/~{GG}*%
X186893699Y-66446899D02*
X186893699Y-58262899D01*
X186131699Y-110896899D02*
X186131699Y-67208899D01*
X186131699Y-67208899D02*
X186893699Y-66446899D01*
X186893699Y-111658899D02*
X186131699Y-110896899D01*
X186893699Y-58262899D02*
X185542699Y-56911899D01*
X186893699Y-124358899D02*
X186893699Y-111658899D01*
%TO.N,/~{TV}*%
X186893699Y-108102899D02*
X186893699Y-76860899D01*
X188082699Y-75671899D02*
X188082699Y-59451899D01*
X186893699Y-76860899D02*
X188082699Y-75671899D01*
X188163699Y-129438899D02*
X188163699Y-109372899D01*
X188163699Y-109372899D02*
X186893699Y-108102899D01*
%TO.N,/TV_R*%
X189433699Y-124358899D02*
X189433699Y-109118899D01*
X187401699Y-77622899D02*
X189518699Y-75505899D01*
X189518699Y-75505899D02*
X189518699Y-58347899D01*
X189433699Y-109118899D02*
X187401699Y-107086899D01*
X189518699Y-58347899D02*
X188082699Y-56911899D01*
X187401699Y-107086899D02*
X187401699Y-77622899D01*
%TO.N,/TV_L*%
X190939300Y-129203298D02*
X190939300Y-59768500D01*
X190703699Y-129438899D02*
X190939300Y-129203298D01*
%TO.N,/Pin 41*%
X185623699Y-129438899D02*
X185542699Y-129357899D01*
X185542699Y-129357899D02*
X185542699Y-59451899D01*
%TD*%
%TA.AperFunction,Conductor*%
%TO.N,GND*%
G36*
X156355820Y-55222051D02*
G01*
X156402313Y-55275707D01*
X156413699Y-55328049D01*
X156413699Y-56372430D01*
X156393697Y-56440551D01*
X156340041Y-56487044D01*
X156269767Y-56497148D01*
X156205187Y-56467654D01*
X156166803Y-56407928D01*
X156162227Y-56383957D01*
X156160844Y-56368904D01*
X156158235Y-56355876D01*
X156113359Y-56212679D01*
X156107151Y-56198929D01*
X156029889Y-56071355D01*
X156020576Y-56059478D01*
X155915120Y-55954022D01*
X155903243Y-55944709D01*
X155775669Y-55867447D01*
X155761919Y-55861239D01*
X155618728Y-55816365D01*
X155605685Y-55813753D01*
X155588738Y-55812196D01*
X155573864Y-55815117D01*
X155570699Y-55827013D01*
X155570699Y-57995144D01*
X155574970Y-58009689D01*
X155587103Y-58011752D01*
X155605694Y-58010044D01*
X155618722Y-58007435D01*
X155761919Y-57962559D01*
X155775669Y-57956351D01*
X155903243Y-57879089D01*
X155915120Y-57869776D01*
X156020576Y-57764320D01*
X156029889Y-57752443D01*
X156107151Y-57624869D01*
X156113359Y-57611119D01*
X156158233Y-57467929D01*
X156160845Y-57454884D01*
X156162228Y-57439834D01*
X156188379Y-57373829D01*
X156246063Y-57332441D01*
X156316967Y-57328809D01*
X156378578Y-57364088D01*
X156411336Y-57427076D01*
X156413699Y-57451363D01*
X156413699Y-58912430D01*
X156393697Y-58980551D01*
X156340041Y-59027044D01*
X156269767Y-59037148D01*
X156205187Y-59007654D01*
X156166803Y-58947928D01*
X156162227Y-58923957D01*
X156160844Y-58908904D01*
X156158235Y-58895876D01*
X156113359Y-58752679D01*
X156107151Y-58738929D01*
X156029889Y-58611355D01*
X156020576Y-58599478D01*
X155915120Y-58494022D01*
X155903243Y-58484709D01*
X155775669Y-58407447D01*
X155761919Y-58401239D01*
X155618728Y-58356365D01*
X155605685Y-58353753D01*
X155588738Y-58352196D01*
X155573864Y-58355117D01*
X155570699Y-58367013D01*
X155570699Y-60535144D01*
X155574970Y-60549689D01*
X155587103Y-60551752D01*
X155605694Y-60550044D01*
X155618722Y-60547435D01*
X155761919Y-60502559D01*
X155775669Y-60496351D01*
X155903243Y-60419089D01*
X155915120Y-60409776D01*
X156020576Y-60304320D01*
X156029889Y-60292443D01*
X156107151Y-60164869D01*
X156113359Y-60151119D01*
X156158233Y-60007929D01*
X156160845Y-59994884D01*
X156162228Y-59979834D01*
X156188379Y-59913829D01*
X156246063Y-59872441D01*
X156316967Y-59868809D01*
X156378578Y-59904088D01*
X156411336Y-59967076D01*
X156413699Y-59991363D01*
X156413699Y-133343151D01*
X156393697Y-133411272D01*
X156340041Y-133457765D01*
X156287699Y-133469151D01*
X151459699Y-133469151D01*
X151391578Y-133449149D01*
X151345085Y-133395493D01*
X151333699Y-133343151D01*
X151333699Y-125078307D01*
X151353701Y-125010186D01*
X151407357Y-124963693D01*
X151443253Y-124953385D01*
X151483108Y-124948138D01*
X151491296Y-124947060D01*
X151498923Y-124943901D01*
X151498926Y-124943900D01*
X151564725Y-124916645D01*
X151638154Y-124886230D01*
X151764263Y-124789463D01*
X151861030Y-124663353D01*
X151921860Y-124516496D01*
X151942608Y-124358899D01*
X151921860Y-124201302D01*
X151861030Y-124054445D01*
X151764263Y-123928335D01*
X151688293Y-123870041D01*
X151646427Y-123812704D01*
X151638999Y-123770080D01*
X151638999Y-69522780D01*
X151639206Y-69519961D01*
X151640954Y-69514870D01*
X151639088Y-69465157D01*
X151638999Y-69460431D01*
X151638999Y-69441106D01*
X151638108Y-69436320D01*
X151637866Y-69432591D01*
X151637124Y-69412841D01*
X151636688Y-69401217D01*
X151632096Y-69390528D01*
X151631177Y-69386451D01*
X151627098Y-69373024D01*
X151625593Y-69369125D01*
X151623463Y-69357688D01*
X151610246Y-69336246D01*
X151601738Y-69319867D01*
X151595306Y-69304895D01*
X151595303Y-69304891D01*
X151591793Y-69296720D01*
X151587714Y-69291755D01*
X151585388Y-69289429D01*
X151585297Y-69289314D01*
X151583476Y-69287306D01*
X151583612Y-69287183D01*
X151575759Y-69277249D01*
X151569889Y-69270776D01*
X151563784Y-69260871D01*
X151541541Y-69243957D01*
X151528722Y-69232763D01*
X151370604Y-69074645D01*
X151336578Y-69012333D01*
X151333699Y-68985550D01*
X151333699Y-65990050D01*
X151353701Y-65921929D01*
X151370604Y-65900955D01*
X151511895Y-65759664D01*
X151514042Y-65757810D01*
X151518879Y-65755446D01*
X151552734Y-65718950D01*
X151556014Y-65715545D01*
X151569655Y-65701904D01*
X151572410Y-65697888D01*
X151574865Y-65695092D01*
X151588314Y-65680594D01*
X151596227Y-65672064D01*
X151600538Y-65661258D01*
X151602773Y-65657723D01*
X151609380Y-65645350D01*
X151611075Y-65641525D01*
X151617655Y-65631933D01*
X151623471Y-65607426D01*
X151629036Y-65589830D01*
X151635077Y-65574688D01*
X151635078Y-65574685D01*
X151638372Y-65566428D01*
X151638999Y-65560033D01*
X151638999Y-65556739D01*
X151639017Y-65556588D01*
X151639149Y-65553881D01*
X151639332Y-65553890D01*
X151640802Y-65541335D01*
X151641229Y-65532594D01*
X151643916Y-65521274D01*
X151640150Y-65493601D01*
X151638999Y-65476611D01*
X151638999Y-60356206D01*
X151659001Y-60288085D01*
X151712657Y-60241592D01*
X151782931Y-60231488D01*
X151846662Y-60260252D01*
X151884487Y-60292443D01*
X151918429Y-60321330D01*
X152098810Y-60422142D01*
X152104670Y-60424046D01*
X152130335Y-60432385D01*
X152188941Y-60472458D01*
X152216578Y-60537855D01*
X152217399Y-60552218D01*
X152217399Y-128913405D01*
X152197397Y-128981526D01*
X152180492Y-129002503D01*
X152179689Y-129003306D01*
X152173135Y-129008335D01*
X152076368Y-129134445D01*
X152015538Y-129281302D01*
X151994790Y-129438899D01*
X152015538Y-129596496D01*
X152076368Y-129743353D01*
X152173135Y-129869463D01*
X152299244Y-129966230D01*
X152372673Y-129996645D01*
X152438472Y-130023900D01*
X152438475Y-130023901D01*
X152446102Y-130027060D01*
X152603699Y-130047808D01*
X152611887Y-130046730D01*
X152753108Y-130028138D01*
X152761296Y-130027060D01*
X152768923Y-130023901D01*
X152768926Y-130023900D01*
X152834725Y-129996645D01*
X152908154Y-129966230D01*
X153034263Y-129869463D01*
X153131030Y-129743353D01*
X153191860Y-129596496D01*
X153212608Y-129438899D01*
X153191860Y-129281302D01*
X153131030Y-129134445D01*
X153034263Y-129008335D01*
X152908154Y-128911568D01*
X152900523Y-128908407D01*
X152893370Y-128904277D01*
X152894825Y-128901757D01*
X152850498Y-128866034D01*
X152827999Y-128794176D01*
X152827999Y-60554765D01*
X152848001Y-60486644D01*
X152901657Y-60440151D01*
X152901741Y-60440115D01*
X152905586Y-60439042D01*
X153090031Y-60345872D01*
X153117598Y-60324335D01*
X153248006Y-60222449D01*
X153248007Y-60222448D01*
X153252867Y-60218651D01*
X153387890Y-60062224D01*
X153436700Y-59976303D01*
X153962846Y-59976303D01*
X153964554Y-59994894D01*
X153967163Y-60007922D01*
X154012039Y-60151119D01*
X154018247Y-60164869D01*
X154095509Y-60292443D01*
X154104822Y-60304320D01*
X154210278Y-60409776D01*
X154222155Y-60419089D01*
X154349729Y-60496351D01*
X154363479Y-60502559D01*
X154506670Y-60547433D01*
X154519713Y-60550045D01*
X154536660Y-60551602D01*
X154551534Y-60548681D01*
X154554699Y-60536785D01*
X154554699Y-59978014D01*
X154550224Y-59962775D01*
X154548834Y-59961570D01*
X154541151Y-59959899D01*
X153979454Y-59959899D01*
X153964909Y-59964170D01*
X153962846Y-59976303D01*
X153436700Y-59976303D01*
X153489959Y-59882551D01*
X153555185Y-59686474D01*
X153581084Y-59481462D01*
X153581497Y-59451899D01*
X153561332Y-59246244D01*
X153501606Y-59048422D01*
X153436439Y-58925860D01*
X153962996Y-58925860D01*
X153965917Y-58940734D01*
X153977813Y-58943899D01*
X154536584Y-58943899D01*
X154551823Y-58939424D01*
X154553028Y-58938034D01*
X154554699Y-58930351D01*
X154554699Y-58368654D01*
X154550428Y-58354109D01*
X154538295Y-58352046D01*
X154519704Y-58353754D01*
X154506676Y-58356363D01*
X154363479Y-58401239D01*
X154349729Y-58407447D01*
X154222155Y-58484709D01*
X154210278Y-58494022D01*
X154104822Y-58599478D01*
X154095509Y-58611355D01*
X154018247Y-58738929D01*
X154012039Y-58752679D01*
X153967165Y-58895870D01*
X153964553Y-58908913D01*
X153962996Y-58925860D01*
X153436439Y-58925860D01*
X153404594Y-58865969D01*
X153400704Y-58861199D01*
X153400701Y-58861195D01*
X153277886Y-58710609D01*
X153277883Y-58710606D01*
X153273991Y-58705834D01*
X153261399Y-58695417D01*
X153119521Y-58578045D01*
X153119518Y-58578043D01*
X153114771Y-58574116D01*
X152933000Y-58475832D01*
X152834300Y-58445279D01*
X152741487Y-58416549D01*
X152741484Y-58416548D01*
X152735600Y-58414727D01*
X152729475Y-58414083D01*
X152729474Y-58414083D01*
X152536219Y-58393771D01*
X152536218Y-58393771D01*
X152530091Y-58393127D01*
X152403281Y-58404667D01*
X152330441Y-58411296D01*
X152330440Y-58411296D01*
X152324300Y-58411855D01*
X152126066Y-58470199D01*
X151942940Y-58565935D01*
X151938140Y-58569795D01*
X151938139Y-58569795D01*
X151843951Y-58645524D01*
X151778328Y-58672620D01*
X151708474Y-58659937D01*
X151656566Y-58611500D01*
X151638999Y-58547327D01*
X151638999Y-58316189D01*
X151639206Y-58313364D01*
X151640955Y-58308271D01*
X151639088Y-58258542D01*
X151638999Y-58253816D01*
X151638999Y-58234506D01*
X151638107Y-58229718D01*
X151637866Y-58226001D01*
X151637124Y-58206241D01*
X151636688Y-58194618D01*
X151632096Y-58183929D01*
X151631177Y-58179852D01*
X151627096Y-58166419D01*
X151625593Y-58162524D01*
X151623463Y-58151088D01*
X151610239Y-58129634D01*
X151601742Y-58113278D01*
X151592603Y-58092007D01*
X151584090Y-58021528D01*
X151615034Y-57957630D01*
X151675612Y-57920605D01*
X151746591Y-57922208D01*
X151773641Y-57934495D01*
X151809732Y-57956352D01*
X151823479Y-57962559D01*
X151966670Y-58007433D01*
X151979713Y-58010045D01*
X151996660Y-58011602D01*
X152011534Y-58008681D01*
X152014699Y-57996785D01*
X152014699Y-57995144D01*
X153030699Y-57995144D01*
X153034970Y-58009689D01*
X153047103Y-58011752D01*
X153065694Y-58010044D01*
X153078722Y-58007435D01*
X153221919Y-57962559D01*
X153235669Y-57956351D01*
X153363243Y-57879089D01*
X153375120Y-57869776D01*
X153480576Y-57764320D01*
X153489889Y-57752443D01*
X153567151Y-57624869D01*
X153573359Y-57611119D01*
X153618233Y-57467928D01*
X153620845Y-57454885D01*
X153622402Y-57437938D01*
X153622081Y-57436303D01*
X153962846Y-57436303D01*
X153964554Y-57454894D01*
X153967163Y-57467922D01*
X154012039Y-57611119D01*
X154018247Y-57624869D01*
X154095509Y-57752443D01*
X154104822Y-57764320D01*
X154210278Y-57869776D01*
X154222155Y-57879089D01*
X154349729Y-57956351D01*
X154363479Y-57962559D01*
X154506670Y-58007433D01*
X154519713Y-58010045D01*
X154536660Y-58011602D01*
X154551534Y-58008681D01*
X154554699Y-57996785D01*
X154554699Y-57438014D01*
X154550224Y-57422775D01*
X154548834Y-57421570D01*
X154541151Y-57419899D01*
X153979454Y-57419899D01*
X153964909Y-57424170D01*
X153962846Y-57436303D01*
X153622081Y-57436303D01*
X153619481Y-57423064D01*
X153607585Y-57419899D01*
X153048814Y-57419899D01*
X153033575Y-57424374D01*
X153032370Y-57425764D01*
X153030699Y-57433447D01*
X153030699Y-57995144D01*
X152014699Y-57995144D01*
X152014699Y-56385784D01*
X153030699Y-56385784D01*
X153035174Y-56401023D01*
X153036564Y-56402228D01*
X153044247Y-56403899D01*
X153605944Y-56403899D01*
X153620489Y-56399628D01*
X153622552Y-56387495D01*
X153622402Y-56385860D01*
X153962996Y-56385860D01*
X153965917Y-56400734D01*
X153977813Y-56403899D01*
X154536584Y-56403899D01*
X154551823Y-56399424D01*
X154553028Y-56398034D01*
X154554699Y-56390351D01*
X154554699Y-55828654D01*
X154550428Y-55814109D01*
X154538295Y-55812046D01*
X154519704Y-55813754D01*
X154506676Y-55816363D01*
X154363479Y-55861239D01*
X154349729Y-55867447D01*
X154222155Y-55944709D01*
X154210278Y-55954022D01*
X154104822Y-56059478D01*
X154095509Y-56071355D01*
X154018247Y-56198929D01*
X154012039Y-56212679D01*
X153967165Y-56355870D01*
X153964553Y-56368913D01*
X153962996Y-56385860D01*
X153622402Y-56385860D01*
X153620844Y-56368904D01*
X153618235Y-56355876D01*
X153573359Y-56212679D01*
X153567151Y-56198929D01*
X153489889Y-56071355D01*
X153480576Y-56059478D01*
X153375120Y-55954022D01*
X153363243Y-55944709D01*
X153235669Y-55867447D01*
X153221919Y-55861239D01*
X153078728Y-55816365D01*
X153065685Y-55813753D01*
X153048738Y-55812196D01*
X153033864Y-55815117D01*
X153030699Y-55827013D01*
X153030699Y-56385784D01*
X152014699Y-56385784D01*
X152014699Y-55828654D01*
X152010428Y-55814109D01*
X151998295Y-55812046D01*
X151979704Y-55813754D01*
X151966676Y-55816363D01*
X151823479Y-55861239D01*
X151809729Y-55867447D01*
X151682155Y-55944709D01*
X151670278Y-55954022D01*
X151564824Y-56059476D01*
X151558853Y-56067091D01*
X151501080Y-56108355D01*
X151430168Y-56111835D01*
X151368633Y-56076424D01*
X151336010Y-56013366D01*
X151333699Y-55989344D01*
X151333699Y-55328049D01*
X151353701Y-55259928D01*
X151407357Y-55213435D01*
X151459699Y-55202049D01*
X156287699Y-55202049D01*
X156355820Y-55222051D01*
G37*
%TD.AperFunction*%
%TD*%
M02*
