%TF.GenerationSoftware,KiCad,Pcbnew,(6.0.9)*%
%TF.CreationDate,2022-12-02T14:08:30-06:00*%
%TF.ProjectId,Game Gear Breakout,47616d65-2047-4656-9172-20427265616b,rev?*%
%TF.SameCoordinates,Original*%
%TF.FileFunction,Paste,Top*%
%TF.FilePolarity,Positive*%
%FSLAX46Y46*%
G04 Gerber Fmt 4.6, Leading zero omitted, Abs format (unit mm)*
G04 Created by KiCad (PCBNEW (6.0.9)) date 2022-12-02 14:08:30*
%MOMM*%
%LPD*%
G01*
G04 APERTURE LIST*
G04 Aperture macros list*
%AMRoundRect*
0 Rectangle with rounded corners*
0 $1 Rounding radius*
0 $2 $3 $4 $5 $6 $7 $8 $9 X,Y pos of 4 corners*
0 Add a 4 corners polygon primitive as box body*
4,1,4,$2,$3,$4,$5,$6,$7,$8,$9,$2,$3,0*
0 Add four circle primitives for the rounded corners*
1,1,$1+$1,$2,$3*
1,1,$1+$1,$4,$5*
1,1,$1+$1,$6,$7*
1,1,$1+$1,$8,$9*
0 Add four rect primitives between the rounded corners*
20,1,$1+$1,$2,$3,$4,$5,0*
20,1,$1+$1,$4,$5,$6,$7,0*
20,1,$1+$1,$6,$7,$8,$9,0*
20,1,$1+$1,$8,$9,$2,$3,0*%
%AMFreePoly0*
4,1,20,0.080840,2.139914,0.231147,2.102159,0.368110,2.029641,0.483822,1.926546,0.571601,1.798826,0.626382,1.653854,0.645000,1.500000,0.650000,1.500000,0.650000,-1.500000,-0.650000,-1.500000,-0.650000,1.500000,-0.644219,1.500000,-0.644965,1.506754,-0.624736,1.660405,-0.568441,1.804795,-0.479328,1.931589,-0.362544,2.033467,-0.224829,2.104547,-0.074134,2.140725,0.080840,2.139914,
0.080840,2.139914,$1*%
G04 Aperture macros list end*
%ADD10R,3.450000X1.850000*%
%ADD11RoundRect,0.250001X0.624999X-0.462499X0.624999X0.462499X-0.624999X0.462499X-0.624999X-0.462499X0*%
%ADD12RoundRect,0.150000X-0.875000X-0.150000X0.875000X-0.150000X0.875000X0.150000X-0.875000X0.150000X0*%
%ADD13RoundRect,0.250000X0.475000X-0.337500X0.475000X0.337500X-0.475000X0.337500X-0.475000X-0.337500X0*%
%ADD14FreePoly0,0.000000*%
G04 APERTURE END LIST*
D10*
%TO.C,TP3*%
X146227800Y-69494400D03*
%TD*%
%TO.C,TP4*%
X179222899Y-87097099D03*
%TD*%
%TO.C,TP1*%
X166801800Y-69596000D03*
%TD*%
D11*
%TO.C,D1*%
X137323699Y-70982399D03*
X137323699Y-68007399D03*
%TD*%
%TO.C,D2*%
X134823699Y-70982399D03*
X134823699Y-68007399D03*
%TD*%
D12*
%TO.C,J3*%
X158017699Y-87131899D03*
X158017699Y-88401899D03*
X158017699Y-89671899D03*
X158017699Y-90941899D03*
X158017699Y-92211899D03*
X158017699Y-93481899D03*
X158017699Y-94751899D03*
X158017699Y-96021899D03*
X158017699Y-97291899D03*
X158017699Y-98561899D03*
X158017699Y-99831899D03*
X158017699Y-101101899D03*
X158017699Y-102371899D03*
X158017699Y-103641899D03*
X167317699Y-103641899D03*
X167317699Y-102371899D03*
X167317699Y-101101899D03*
X167317699Y-99831899D03*
X167317699Y-98561899D03*
X167317699Y-97291899D03*
X167317699Y-96021899D03*
X167317699Y-94751899D03*
X167317699Y-93481899D03*
X167317699Y-92211899D03*
X167317699Y-90941899D03*
X167317699Y-89671899D03*
X167317699Y-88401899D03*
X167317699Y-87131899D03*
%TD*%
D13*
%TO.C,C1*%
X171857699Y-86984399D03*
X171857699Y-84909399D03*
%TD*%
D10*
%TO.C,TP2*%
X184683400Y-69596000D03*
%TD*%
D14*
%TO.C,J1*%
X134735102Y-131666665D03*
X136005102Y-126586665D03*
X137275102Y-131666665D03*
X138545102Y-126586665D03*
X139815102Y-131666665D03*
X141085102Y-126586665D03*
X142355102Y-131666665D03*
X143625102Y-126586665D03*
X144895102Y-131666665D03*
X146165102Y-126586665D03*
X147435102Y-131666665D03*
X148705102Y-126586665D03*
X149975102Y-131666665D03*
X151245102Y-126586665D03*
X152515102Y-131666665D03*
X153785102Y-126586665D03*
X155055102Y-131666665D03*
X156325102Y-126586665D03*
X157595102Y-131666665D03*
X158865102Y-126586665D03*
X160135102Y-131666665D03*
X161405102Y-126586665D03*
X162675102Y-131666665D03*
X163945102Y-126586665D03*
X165215102Y-131666665D03*
X166485102Y-126586665D03*
X167755102Y-131666665D03*
X169025102Y-126586665D03*
X170295102Y-131666665D03*
X171565102Y-126586665D03*
X172835102Y-131666665D03*
X174105102Y-126586665D03*
X175375102Y-131666665D03*
X176645102Y-126586665D03*
X177915102Y-131666665D03*
X179185102Y-126586665D03*
X180455102Y-131666665D03*
X181725102Y-126586665D03*
X182995102Y-131666665D03*
X184265102Y-126586665D03*
X185535102Y-131666665D03*
X186805102Y-126586665D03*
X188075102Y-131666665D03*
X189345102Y-126586665D03*
X190615102Y-131666665D03*
%TD*%
M02*
