%TF.GenerationSoftware,KiCad,Pcbnew,(6.0.9)*%
%TF.CreationDate,2022-12-02T14:08:30-06:00*%
%TF.ProjectId,Game Gear Breakout,47616d65-2047-4656-9172-20427265616b,rev?*%
%TF.SameCoordinates,Original*%
%TF.FileFunction,Soldermask,Bot*%
%TF.FilePolarity,Negative*%
%FSLAX46Y46*%
G04 Gerber Fmt 4.6, Leading zero omitted, Abs format (unit mm)*
G04 Created by KiCad (PCBNEW (6.0.9)) date 2022-12-02 14:08:30*
%MOMM*%
%LPD*%
G01*
G04 APERTURE LIST*
G04 Aperture macros list*
%AMRoundRect*
0 Rectangle with rounded corners*
0 $1 Rounding radius*
0 $2 $3 $4 $5 $6 $7 $8 $9 X,Y pos of 4 corners*
0 Add a 4 corners polygon primitive as box body*
4,1,4,$2,$3,$4,$5,$6,$7,$8,$9,$2,$3,0*
0 Add four circle primitives for the rounded corners*
1,1,$1+$1,$2,$3*
1,1,$1+$1,$4,$5*
1,1,$1+$1,$6,$7*
1,1,$1+$1,$8,$9*
0 Add four rect primitives between the rounded corners*
20,1,$1+$1,$2,$3,$4,$5,0*
20,1,$1+$1,$4,$5,$6,$7,0*
20,1,$1+$1,$6,$7,$8,$9,0*
20,1,$1+$1,$8,$9,$2,$3,0*%
G04 Aperture macros list end*
%ADD10C,2.700000*%
%ADD11R,1.700000X1.700000*%
%ADD12O,1.700000X1.700000*%
%ADD13RoundRect,0.425000X0.425000X-0.425000X0.425000X0.425000X-0.425000X0.425000X-0.425000X-0.425000X0*%
%ADD14RoundRect,0.250000X0.450000X-0.350000X0.450000X0.350000X-0.450000X0.350000X-0.450000X-0.350000X0*%
G04 APERTURE END LIST*
D10*
%TO.C,PEG1*%
X136177699Y-78846899D03*
%TD*%
D11*
%TO.C,J2*%
X134742699Y-59451899D03*
D12*
X134742699Y-56911899D03*
X137282699Y-59451899D03*
X137282699Y-56911899D03*
X139822699Y-59451899D03*
X139822699Y-56911899D03*
X142362699Y-59451899D03*
X142362699Y-56911899D03*
X144902699Y-59451899D03*
X144902699Y-56911899D03*
X147442699Y-59451899D03*
X147442699Y-56911899D03*
X149982699Y-59451899D03*
X149982699Y-56911899D03*
X152522699Y-59451899D03*
D13*
X152522699Y-56911899D03*
X155062699Y-59451899D03*
X155062699Y-56911899D03*
D12*
X157602699Y-59451899D03*
X157602699Y-56911899D03*
X160142699Y-59451899D03*
X160142699Y-56911899D03*
X162682699Y-59451899D03*
X162682699Y-56911899D03*
X165222699Y-59451899D03*
X165222699Y-56911899D03*
X167762699Y-59451899D03*
X167762699Y-56911899D03*
X170302699Y-59451899D03*
X170302699Y-56911899D03*
X172842699Y-59451899D03*
X172842699Y-56911899D03*
X175382699Y-59451899D03*
X175382699Y-56911899D03*
X177922699Y-59451899D03*
X177922699Y-56911899D03*
X180462699Y-59451899D03*
X180462699Y-56911899D03*
X183002699Y-59451899D03*
X183002699Y-56911899D03*
X185542699Y-59451899D03*
X185542699Y-56911899D03*
X188082699Y-59451899D03*
X188082699Y-56911899D03*
X190622699Y-59451899D03*
D13*
X190622699Y-56911899D03*
%TD*%
D10*
%TO.C,PEG2*%
X189237699Y-105156899D03*
%TD*%
D14*
%TO.C,R2*%
X134823699Y-70517399D03*
X134823699Y-68517399D03*
%TD*%
%TO.C,R1*%
X137363699Y-70517399D03*
X137363699Y-68517399D03*
%TD*%
M02*
